<?xml version="1.0" encoding="UTF-8" standalone="no"?>
<svg
   xmlns:osb="http://www.openswatchbook.org/uri/2009/osb"
   xmlns:dc="http://purl.org/dc/elements/1.1/"
   xmlns:cc="http://creativecommons.org/ns#"
   xmlns:rdf="http://www.w3.org/1999/02/22-rdf-syntax-ns#"
   xmlns:svg="http://www.w3.org/2000/svg"
   xmlns="http://www.w3.org/2000/svg"
   version="1.1"
   id="svg2"
   viewBox="0 0 102 20"
   height="20"
   width="102">
  <defs
     id="defs4">
    <linearGradient
       osb:paint="solid"
       id="linearGradient5087">
      <stop
         id="stop5089"
         offset="0"
         style="stop-color:#2f292b;stop-opacity:1;" />
    </linearGradient>
    <marker
       style="overflow:visible"
       id="Arrow1Lstart"
       refX="0"
       refY="0"
       orient="auto">
      <path
         transform="matrix(0.8,0,0,0.8,10,0)"
         style="fill-rule:evenodd;stroke:#000000;stroke-width:1pt"
         d="M 0,0 5,-5 -12.5,0 5,5 0,0 Z"
         id="path4200" />
    </marker>
    <linearGradient
       osb:paint="solid"
       id="linearGradient4186">
      <stop
         id="stop4188"
         offset="0"
         style="stop-color:#000000;stop-opacity:1;" />
    </linearGradient>
  </defs>
  <metadata
     id="metadata7">
    <rdf:RDF>
      <cc:Work
         rdf:about="">
        <dc:format>image/svg+xml</dc:format>
        <dc:type
           rdf:resource="http://purl.org/dc/dcmitype/StillImage" />
        <dc:title></dc:title>
      </cc:Work>
    </rdf:RDF>
  </metadata>
  <g
     transform="translate(0,-1032.3621)"
     id="layer1">
    <path
       id="path4532"
       d="m 0,1032.3621 22,0 0,20 -22,0 0,-2 20,0 0,-16 -18,0 0,16 -2,0 z"
       style="fill:#2f292b;fill-opacity:1;fill-rule:evenodd;stroke:none;stroke-width:1px;stroke-linecap:butt;stroke-linejoin:miter;stroke-opacity:1" />
    <path
       id="path4532-3"
       d="m 20,1032.3621 22,0 0,20 -22,0 0,-2 20,0 0,-16 -18,0 0,16 -2,0 z"
       style="fill:#2f292b;fill-opacity:1;fill-rule:evenodd;stroke:none;stroke-width:1px;stroke-linecap:butt;stroke-linejoin:miter;stroke-opacity:1" />
    <path
       id="path4532-9"
       d="m 40,1032.3621 22,0 0,20 -22,0 0,-2 20,0 0,-16 -18,0 0,16 -2,0 z"
       style="fill:#2f292b;fill-opacity:1;fill-rule:evenodd;stroke:none;stroke-width:1px;stroke-linecap:butt;stroke-linejoin:miter;stroke-opacity:1" />
    <path
       id="path4532-7"
       d="m 60,1032.3621 22,0 0,20 -22,0 0,-2 20,0 0,-16 -18,0 0,16 -2,0 z"
       style="fill:#2f292b;fill-opacity:1;fill-rule:evenodd;stroke:none;stroke-width:1px;stroke-linecap:butt;stroke-linejoin:miter;stroke-opacity:1" />
    <path
       id="path4532-74"
       d="m 80,1032.3621 22,0 0,20 -22,0 0,-2 20,0 0,-16 -18,0 0,16 -2,0 z"
       style="fill:#2f292b;fill-opacity:1;fill-rule:evenodd;stroke:none;stroke-width:1px;stroke-linecap:butt;stroke-linejoin:miter;stroke-opacity:1" />
    <text
       id="text4567"
       y="1053.9102"
       x="4.444097"
       style="font-style:normal;font-variant:normal;font-weight:normal;font-stretch:normal;font-size:25px;line-height:125%;font-family:Ebrima;-inkscape-font-specification:Ebrima;letter-spacing:4px;word-spacing:0px;fill:#000000;fill-opacity:1;stroke:none;stroke-width:1px;stroke-linecap:butt;stroke-linejoin:miter;stroke-opacity:1"
       xml:space="preserve"><tspan
         style="font-style:normal;font-variant:normal;font-weight:normal;font-stretch:normal;font-size:25px;font-family:Ebrima;-inkscape-font-specification:Ebrima;letter-spacing:4px"
         y="1053.9102"
         x="4.444097"
         id="tspan4569"><tspan
           id="tspan4575"
           style="letter-spacing:6.27999973px">T</tspan><tspan
           id="tspan5019"
           style="letter-spacing:3.23000002px">o</tspan><tspan
           id="tspan5083"
           style="letter-spacing:4.53999996px">Do</tspan></tspan></text>
    <text
       id="text4571"
       y="1047.3621"
       x="20"
       style="font-style:normal;font-weight:normal;font-size:40px;line-height:125%;font-family:sans-serif;letter-spacing:0px;word-spacing:0px;fill:#000000;fill-opacity:1;stroke:none;stroke-width:1px;stroke-linecap:butt;stroke-linejoin:miter;stroke-opacity:1"
       xml:space="preserve"><tspan
         y="1047.3621"
         x="20"
         id="tspan4573" /></text>
    <rect
       y="1052.3621"
       x="-10"
       height="15"
       width="110"
       id="rect5085"
       style="fill:#ffffff;fill-opacity:1;stroke:none;stroke-width:2;stroke-linecap:butt;stroke-linejoin:miter;stroke-miterlimit:4;stroke-dasharray:none;stroke-dashoffset:0;stroke-opacity:1" />
    <text
       transform="scale(1.0241732,0.97639736)"
       id="text5093"
       y="1078.6971"
       x="76.315155"
       style="font-style:normal;font-weight:normal;font-size:34.63896942px;line-height:125%;font-family:sans-serif;letter-spacing:0px;word-spacing:0px;fill:#000000;fill-opacity:1;stroke:none;stroke-width:1px;stroke-linecap:butt;stroke-linejoin:miter;stroke-opacity:1"
       xml:space="preserve"><tspan
         y="1078.6971"
         x="76.315155"
         id="tspan5095">☑</tspan></text>
    <rect
       y="1052.3621"
       x="25"
       height="15"
       width="110"
       id="rect5085-9"
       style="fill:#ffffff;fill-opacity:1;stroke:none;stroke-width:2;stroke-linecap:butt;stroke-linejoin:miter;stroke-miterlimit:4;stroke-dasharray:none;stroke-dashoffset:0;stroke-opacity:1" />
  </g>
</svg>
